<?xml version="1.0" encoding="utf-8"?>
<!-- generated at drububu.com  -->
<!DOCTYPE svg PUBLIC "-//W3C//DTD SVG 1.1//EN" "http://www.w3.org/Graphics/SVG/1.1/DTD/svg11.dtd">
<svg version="1.1" preserveAspectRatio="xMinYMin meet" xmlns="http://www.w3.org/2000/svg" xmlns:xlink="http://www.w3.org/1999/xlink" x="0px" y="0px" width="36px" height="36px" viewBox="0 0 36 36">
<path d="M0 0h36v36h-36v-36z" fill="rgb(255,255,255)"/>
<path d="M10 8h4v2h-2v2h-2v-4z" fill="rgb(0,0,0)"/>
<path d="M20 8h4v4h-2v-2h-2v-2z" fill="rgb(0,0,0)"/>
<path d="M12 10h2v2h6v-2h2v2h2v2h2v10h-2v2h-14v-2h-2v-10h2v-2h2v-2z" fill="rgb(255,255,255)"/>
<path d="M14 10h6v2h-6v-2z" fill="rgb(0,0,0)"/>
<path d="M8 12h2v2h-2v-2z" fill="rgb(0,0,0)"/>
<path d="M24 12h2v2h-2v-2z" fill="rgb(0,0,0)"/>
<path d="M6 14h2v10h-2v-10z" fill="rgb(0,0,0)"/>
<path d="M12 14h2v4h-2v-4z" fill="rgb(0,0,0)"/>
<path d="M20 14h2v4h-2v-4z" fill="rgb(0,0,0)"/>
<path d="M26 14h2v10h-2v-10z" fill="rgb(0,0,0)"/>
<path d="M14 18h6v2h-6v-2z" fill="rgb(0,0,0)"/>
<path d="M8 24h2v2h-2v-2z" fill="rgb(0,0,0)"/>
<path d="M24 24h2v2h-2v-2z" fill="rgb(0,0,0)"/>
<path d="M10 26h14v2h-14v-2z" fill="rgb(0,0,0)"/>
</svg>